<svg width="656" height="193" viewBox="0 0 656 193" fill="none" xmlns="http://www.w3.org/2000/svg">
<path d="M584.812 169H567.625V50.4375H584.812V169Z" fill="#D6241E"/>
<path d="M527 127.625C527.667 127.833 528.333 127.979 529 128.062C529.667 128.104 530.333 128.125 531 128.125C532.667 128.125 534.271 127.896 535.812 127.438C537.354 126.979 538.792 126.333 540.125 125.5C541.5 124.625 542.708 123.583 543.75 122.375C544.833 121.125 545.708 119.75 546.375 118.25L558.875 130.812C557.292 133.062 555.458 135.083 553.375 136.875C551.333 138.667 549.104 140.188 546.688 141.438C544.312 142.688 541.792 143.625 539.125 144.25C536.5 144.917 533.792 145.25 531 145.25C526.292 145.25 521.854 144.375 517.688 142.625C513.562 140.875 509.938 138.438 506.812 135.312C503.729 132.188 501.292 128.479 499.5 124.188C497.708 119.854 496.812 115.104 496.812 109.938C496.812 104.646 497.708 99.8125 499.5 95.4375C501.292 91.0625 503.729 87.3333 506.812 84.25C509.938 81.1667 513.562 78.7708 517.688 77.0625C521.854 75.3542 526.292 74.5 531 74.5C533.792 74.5 536.521 74.8333 539.188 75.5C541.854 76.1667 544.375 77.125 546.75 78.375C549.167 79.625 551.417 81.1667 553.5 83C555.583 84.7917 557.417 86.8125 559 89.0625L527 127.625ZM535.75 92.4375C534.958 92.1458 534.167 91.9583 533.375 91.875C532.625 91.7917 531.833 91.75 531 91.75C528.667 91.75 526.458 92.1875 524.375 93.0625C522.333 93.8958 520.542 95.1042 519 96.6875C517.5 98.2708 516.312 100.188 515.438 102.438C514.562 104.646 514.125 107.146 514.125 109.938C514.125 110.562 514.146 111.271 514.188 112.062C514.271 112.854 514.375 113.667 514.5 114.5C514.667 115.292 514.854 116.062 515.062 116.812C515.271 117.562 515.542 118.229 515.875 118.812L535.75 92.4375Z" fill="#D6241E"/>
<path d="M477.562 136.188C476.188 137.438 474.708 138.625 473.125 139.75C471.583 140.833 469.958 141.792 468.25 142.625C466.542 143.417 464.771 144.042 462.938 144.5C461.146 145 459.312 145.25 457.438 145.25C453.312 145.25 449.438 144.521 445.812 143.062C442.188 141.604 439 139.542 436.25 136.875C433.542 134.167 431.396 130.896 429.812 127.062C428.271 123.188 427.5 118.854 427.5 114.062V77.0625H444.5V114.062C444.5 116.312 444.833 118.333 445.5 120.125C446.208 121.875 447.146 123.354 448.312 124.562C449.479 125.771 450.833 126.688 452.375 127.312C453.958 127.938 455.646 128.25 457.438 128.25C459.188 128.25 460.833 127.854 462.375 127.062C463.958 126.229 465.333 125.146 466.5 123.812C467.667 122.479 468.583 120.979 469.25 119.312C469.917 117.604 470.25 115.854 470.25 114.062V77.0625H487.312V144H483.188L477.562 136.188Z" fill="#D6241E"/>
<path d="M418.25 99.1875C418.25 103.312 417.708 107.292 416.625 111.125C415.583 114.917 414.083 118.479 412.125 121.812C410.167 125.104 407.833 128.125 405.125 130.875C402.417 133.583 399.396 135.917 396.062 137.875C392.729 139.833 389.146 141.354 385.312 142.438C381.521 143.479 377.562 144 373.438 144H346.438V54.375H373.438C377.562 54.375 381.521 54.9167 385.312 56C389.146 57.0417 392.729 58.5417 396.062 60.5C399.396 62.4583 402.417 64.8125 405.125 67.5625C407.833 70.2708 410.167 73.2917 412.125 76.625C414.083 79.9167 415.583 83.4792 416.625 87.3125C417.708 91.1042 418.25 95.0625 418.25 99.1875ZM400.312 99.1875C400.312 95.4792 399.604 92 398.188 88.75C396.812 85.5 394.896 82.6667 392.438 80.25C390.021 77.7917 387.167 75.8542 383.875 74.4375C380.625 73.0208 377.146 72.3125 373.438 72.3125H364.5V126.062H373.438C377.146 126.062 380.625 125.375 383.875 124C387.167 122.583 390.021 120.667 392.438 118.25C394.896 115.792 396.812 112.938 398.188 109.688C399.604 106.396 400.312 102.896 400.312 99.1875Z" fill="#D6241E"/>
<path d="M322.062 144C317.938 144 314.062 143.229 310.438 141.688C306.812 140.104 303.625 137.958 300.875 135.25C298.167 132.5 296.021 129.312 294.438 125.688C292.896 122.062 292.125 118.188 292.125 114.062V94.1875H283.812V77.1875H292.125V50.4375H309.125V77.1875H335V94.1875H309.125V114.062C309.125 115.854 309.458 117.542 310.125 119.125C310.792 120.667 311.708 122.021 312.875 123.188C314.042 124.354 315.417 125.292 317 126C318.583 126.667 320.271 127 322.062 127H335V144H322.062Z" fill="#1ED760"/>
<path d="M252.562 144H235.5V77.0625H239.625L245.25 85C248 82.5 251.125 80.5833 254.625 79.25C258.125 77.875 261.75 77.1875 265.5 77.1875H280.562V94.1875H265.5C263.708 94.1875 262.021 94.5208 260.438 95.1875C258.854 95.8542 257.479 96.7708 256.312 97.9375C255.146 99.1042 254.229 100.479 253.562 102.062C252.896 103.646 252.562 105.333 252.562 107.125V144Z" fill="#1ED760"/>
<path d="M222.438 144H218.312L211.688 134.812C210.062 136.271 208.333 137.646 206.5 138.938C204.708 140.188 202.812 141.292 200.812 142.25C198.812 143.167 196.75 143.896 194.625 144.438C192.542 144.979 190.417 145.25 188.25 145.25C183.542 145.25 179.104 144.458 174.938 142.875C170.812 141.292 167.188 139 164.062 136C160.979 132.958 158.542 129.25 156.75 124.875C154.958 120.5 154.062 115.521 154.062 109.938C154.062 104.729 154.958 99.9583 156.75 95.625C158.542 91.25 160.979 87.5 164.062 84.375C167.188 81.25 170.812 78.8333 174.938 77.125C179.104 75.375 183.542 74.5 188.25 74.5C190.417 74.5 192.562 74.7708 194.688 75.3125C196.812 75.8542 198.875 76.6042 200.875 77.5625C202.875 78.5208 204.771 79.6458 206.562 80.9375C208.396 82.2292 210.104 83.625 211.688 85.125L218.312 77.1875H222.438V144ZM205.25 109.938C205.25 107.604 204.792 105.354 203.875 103.188C203 100.979 201.792 99.0417 200.25 97.375C198.708 95.6667 196.896 94.3125 194.812 93.3125C192.771 92.2708 190.583 91.75 188.25 91.75C185.917 91.75 183.708 92.1458 181.625 92.9375C179.583 93.7292 177.792 94.8958 176.25 96.4375C174.75 97.9792 173.562 99.8958 172.688 102.188C171.812 104.438 171.375 107.021 171.375 109.938C171.375 112.854 171.812 115.458 172.688 117.75C173.562 120 174.75 121.896 176.25 123.438C177.792 124.979 179.583 126.146 181.625 126.938C183.708 127.729 185.917 128.125 188.25 128.125C190.583 128.125 192.771 127.625 194.812 126.625C196.896 125.583 198.708 124.229 200.25 122.562C201.792 120.854 203 118.917 203.875 116.75C204.792 114.542 205.25 112.271 205.25 109.938Z" fill="#1ED760"/>
<path d="M102.688 144H85.625V25.5H102.688V80C104.729 78.4583 106.833 77.375 109 76.75C111.167 76.0833 113.375 75.75 115.625 75.75C119.75 75.75 123.625 76.5417 127.25 78.125C130.875 79.6667 134.021 81.8125 136.688 84.5625C139.396 87.2708 141.521 90.4583 143.062 94.125C144.646 97.75 145.438 101.625 145.438 105.75V144H128.25V105.75H128.375C128.375 104 128.042 102.354 127.375 100.812C126.708 99.2292 125.792 97.8542 124.625 96.6875C123.458 95.5208 122.104 94.6042 120.562 93.9375C119.021 93.2708 117.375 92.9375 115.625 92.9375C113.833 92.9375 112.146 93.2708 110.562 93.9375C108.979 94.6042 107.604 95.5208 106.438 96.6875C105.271 97.8542 104.354 99.2292 103.688 100.812C103.021 102.354 102.688 104 102.688 105.75V144Z" fill="#1ED760"/>
<path d="M77 134.812C72.8333 138.396 68.1667 141.146 63 143.062C57.8333 144.979 52.4792 145.938 46.9375 145.938C42.6875 145.938 38.5833 145.375 34.625 144.25C30.7083 143.167 27.0208 141.625 23.5625 139.625C20.1458 137.583 17.0208 135.146 14.1875 132.312C11.3542 129.479 8.91667 126.354 6.875 122.938C4.875 119.479 3.3125 115.792 2.1875 111.875C1.10417 107.917 0.5625 103.812 0.5625 99.5625C0.5625 95.3125 1.10417 91.2083 2.1875 87.25C3.3125 83.2917 4.875 79.6042 6.875 76.1875C8.91667 72.7292 11.3542 69.5833 14.1875 66.75C17.0208 63.9167 20.1458 61.5 23.5625 59.5C27.0208 57.4583 30.7083 55.8958 34.625 54.8125C38.5833 53.6875 42.6875 53.125 46.9375 53.125C52.4792 53.125 57.8333 54.0833 63 56C68.1667 57.875 72.8333 60.625 77 64.25L67.5 79.875C64.875 77.0417 61.7708 74.875 58.1875 73.375C54.6042 71.8333 50.8542 71.0625 46.9375 71.0625C42.9792 71.0625 39.2708 71.8125 35.8125 73.3125C32.3542 74.8125 29.3333 76.8542 26.75 79.4375C24.1667 81.9792 22.125 85 20.625 88.5C19.125 91.9583 18.375 95.6458 18.375 99.5625C18.375 103.479 19.125 107.167 20.625 110.625C22.125 114.042 24.1667 117.042 26.75 119.625C29.3333 122.208 32.3542 124.25 35.8125 125.75C39.2708 127.25 42.9792 128 46.9375 128C50.8542 128 54.6042 127.25 58.1875 125.75C61.7708 124.208 64.875 122.021 67.5 119.188L77 134.812Z" fill="#1ED760"/>
<path d="M94.0625 0L108.352 25.5H79.7731L94.0625 0Z" fill="#1ED760"/>
<path d="M575.625 193L561.336 167.5H589.914L575.625 193Z" fill="#D6241E"/>
<path d="M634.062 143.5H595.062V126.5H634.062C635.229 126.5 636.229 126.083 637.062 125.25C637.896 124.417 638.312 123.417 638.312 122.25C638.312 121.042 637.896 120.25 637.062 119.875C636.229 119.5 635.229 119.312 634.062 119.312H616.312C613.354 119.312 610.583 118.75 608 117.625C605.417 116.5 603.167 114.979 601.25 113.062C599.333 111.104 597.812 108.833 596.688 106.25C595.604 103.667 595.062 100.896 595.062 97.9375C595.062 94.9792 595.604 92.2083 596.688 89.625C597.812 87.0417 599.333 84.7917 601.25 82.875C603.167 80.9583 605.417 79.4583 608 78.375C610.583 77.25 613.354 76.6875 616.312 76.6875H650.875V93.6875H616.312C615.146 93.6875 614.146 94.1042 613.312 94.9375C612.479 95.7708 612.062 96.7708 612.062 97.9375C612.062 99.1458 612.479 100.188 613.312 101.062C614.146 101.896 615.146 102.312 616.312 102.312H634.062C636.979 102.312 639.729 102.812 642.312 103.812C644.896 104.771 647.146 106.125 649.062 107.875C650.979 109.625 652.5 111.729 653.625 114.188C654.75 116.646 655.312 119.333 655.312 122.25C655.312 125.208 654.75 127.979 653.625 130.562C652.5 133.104 650.979 135.354 649.062 137.312C647.146 139.229 644.896 140.75 642.312 141.875C639.729 142.958 636.979 143.5 634.062 143.5Z" fill="#D6241E"/>
</svg>
