<svg width="590" height="193" viewBox="0 0 590 193" fill="none" xmlns="http://www.w3.org/2000/svg">
<path d="M584.25 169H567.062V50.4375H584.25V169Z" fill="#D6241E"/>
<path d="M526.438 127.625C527.104 127.833 527.771 127.979 528.438 128.062C529.104 128.104 529.771 128.125 530.438 128.125C532.104 128.125 533.708 127.896 535.25 127.438C536.792 126.979 538.229 126.333 539.562 125.5C540.938 124.625 542.146 123.583 543.188 122.375C544.271 121.125 545.146 119.75 545.812 118.25L558.312 130.812C556.729 133.062 554.896 135.083 552.812 136.875C550.771 138.667 548.542 140.188 546.125 141.438C543.75 142.688 541.229 143.625 538.562 144.25C535.938 144.917 533.229 145.25 530.438 145.25C525.729 145.25 521.292 144.375 517.125 142.625C513 140.875 509.375 138.438 506.25 135.312C503.167 132.188 500.729 128.479 498.938 124.188C497.146 119.854 496.25 115.104 496.25 109.938C496.25 104.646 497.146 99.8125 498.938 95.4375C500.729 91.0625 503.167 87.3333 506.25 84.25C509.375 81.1667 513 78.7708 517.125 77.0625C521.292 75.3542 525.729 74.5 530.438 74.5C533.229 74.5 535.958 74.8333 538.625 75.5C541.292 76.1667 543.812 77.125 546.188 78.375C548.604 79.625 550.854 81.1667 552.938 83C555.021 84.7917 556.854 86.8125 558.438 89.0625L526.438 127.625ZM535.188 92.4375C534.396 92.1458 533.604 91.9583 532.812 91.875C532.062 91.7917 531.271 91.75 530.438 91.75C528.104 91.75 525.896 92.1875 523.812 93.0625C521.771 93.8958 519.979 95.1042 518.438 96.6875C516.938 98.2708 515.75 100.188 514.875 102.438C514 104.646 513.562 107.146 513.562 109.938C513.562 110.562 513.583 111.271 513.625 112.062C513.708 112.854 513.812 113.667 513.938 114.5C514.104 115.292 514.292 116.062 514.5 116.812C514.708 117.562 514.979 118.229 515.312 118.812L535.188 92.4375Z" fill="#D6241E"/>
<path d="M477 136.188C475.625 137.438 474.146 138.625 472.562 139.75C471.021 140.833 469.396 141.792 467.688 142.625C465.979 143.417 464.208 144.042 462.375 144.5C460.583 145 458.75 145.25 456.875 145.25C452.75 145.25 448.875 144.521 445.25 143.062C441.625 141.604 438.438 139.542 435.688 136.875C432.979 134.167 430.833 130.896 429.25 127.062C427.708 123.188 426.938 118.854 426.938 114.062V77.0625H443.938V114.062C443.938 116.312 444.271 118.333 444.938 120.125C445.646 121.875 446.583 123.354 447.75 124.562C448.917 125.771 450.271 126.688 451.812 127.312C453.396 127.938 455.083 128.25 456.875 128.25C458.625 128.25 460.271 127.854 461.812 127.062C463.396 126.229 464.771 125.146 465.938 123.812C467.104 122.479 468.021 120.979 468.688 119.312C469.354 117.604 469.688 115.854 469.688 114.062V77.0625H486.75V144H482.625L477 136.188Z" fill="#D6241E"/>
<path d="M417.688 99.1875C417.688 103.312 417.146 107.292 416.062 111.125C415.021 114.917 413.521 118.479 411.562 121.812C409.604 125.104 407.271 128.125 404.562 130.875C401.854 133.583 398.833 135.917 395.5 137.875C392.167 139.833 388.583 141.354 384.75 142.438C380.958 143.479 377 144 372.875 144H345.875V54.375H372.875C377 54.375 380.958 54.9167 384.75 56C388.583 57.0417 392.167 58.5417 395.5 60.5C398.833 62.4583 401.854 64.8125 404.562 67.5625C407.271 70.2708 409.604 73.2917 411.562 76.625C413.521 79.9167 415.021 83.4792 416.062 87.3125C417.146 91.1042 417.688 95.0625 417.688 99.1875ZM399.75 99.1875C399.75 95.4792 399.042 92 397.625 88.75C396.25 85.5 394.333 82.6667 391.875 80.25C389.458 77.7917 386.604 75.8542 383.312 74.4375C380.062 73.0208 376.583 72.3125 372.875 72.3125H363.938V126.062H372.875C376.583 126.062 380.062 125.375 383.312 124C386.604 122.583 389.458 120.667 391.875 118.25C394.333 115.792 396.25 112.938 397.625 109.688C399.042 106.396 399.75 102.896 399.75 99.1875Z" fill="#D6241E"/>
<path d="M321.5 144C317.375 144 313.5 143.229 309.875 141.688C306.25 140.104 303.062 137.958 300.312 135.25C297.604 132.5 295.458 129.312 293.875 125.688C292.333 122.062 291.562 118.188 291.562 114.062V94.1875H283.25V77.1875H291.562V50.4375H308.562V77.1875H334.438V94.1875H308.562V114.062C308.562 115.854 308.896 117.542 309.562 119.125C310.229 120.667 311.146 122.021 312.312 123.188C313.479 124.354 314.854 125.292 316.438 126C318.021 126.667 319.708 127 321.5 127H334.438V144H321.5Z" fill="#1ED760"/>
<path d="M252 144H234.938V77.0625H239.062L244.688 85C247.438 82.5 250.562 80.5833 254.062 79.25C257.562 77.875 261.188 77.1875 264.938 77.1875H280V94.1875H264.938C263.146 94.1875 261.458 94.5208 259.875 95.1875C258.292 95.8542 256.917 96.7708 255.75 97.9375C254.583 99.1042 253.667 100.479 253 102.062C252.333 103.646 252 105.333 252 107.125V144Z" fill="#1ED760"/>
<path d="M221.875 144H217.75L211.125 134.812C209.5 136.271 207.771 137.646 205.938 138.938C204.146 140.188 202.25 141.292 200.25 142.25C198.25 143.167 196.188 143.896 194.062 144.438C191.979 144.979 189.854 145.25 187.688 145.25C182.979 145.25 178.542 144.458 174.375 142.875C170.25 141.292 166.625 139 163.5 136C160.417 132.958 157.979 129.25 156.188 124.875C154.396 120.5 153.5 115.521 153.5 109.938C153.5 104.729 154.396 99.9583 156.188 95.625C157.979 91.25 160.417 87.5 163.5 84.375C166.625 81.25 170.25 78.8333 174.375 77.125C178.542 75.375 182.979 74.5 187.688 74.5C189.854 74.5 192 74.7708 194.125 75.3125C196.25 75.8542 198.312 76.6042 200.312 77.5625C202.312 78.5208 204.208 79.6458 206 80.9375C207.833 82.2292 209.542 83.625 211.125 85.125L217.75 77.1875H221.875V144ZM204.688 109.938C204.688 107.604 204.229 105.354 203.312 103.188C202.438 100.979 201.229 99.0417 199.688 97.375C198.146 95.6667 196.333 94.3125 194.25 93.3125C192.208 92.2708 190.021 91.75 187.688 91.75C185.354 91.75 183.146 92.1458 181.062 92.9375C179.021 93.7292 177.229 94.8958 175.688 96.4375C174.188 97.9792 173 99.8958 172.125 102.188C171.25 104.438 170.812 107.021 170.812 109.938C170.812 112.854 171.25 115.458 172.125 117.75C173 120 174.188 121.896 175.688 123.438C177.229 124.979 179.021 126.146 181.062 126.938C183.146 127.729 185.354 128.125 187.688 128.125C190.021 128.125 192.208 127.625 194.25 126.625C196.333 125.583 198.146 124.229 199.688 122.562C201.229 120.854 202.438 118.917 203.312 116.75C204.229 114.542 204.688 112.271 204.688 109.938Z" fill="#1ED760"/>
<path d="M102.125 144H85.0625V25.5H102.125V80C104.167 78.4583 106.271 77.375 108.438 76.75C110.604 76.0833 112.812 75.75 115.062 75.75C119.188 75.75 123.062 76.5417 126.688 78.125C130.312 79.6667 133.458 81.8125 136.125 84.5625C138.833 87.2708 140.958 90.4583 142.5 94.125C144.083 97.75 144.875 101.625 144.875 105.75V144H127.688V105.75H127.812C127.812 104 127.479 102.354 126.812 100.812C126.146 99.2292 125.229 97.8542 124.062 96.6875C122.896 95.5208 121.542 94.6042 120 93.9375C118.458 93.2708 116.812 92.9375 115.062 92.9375C113.271 92.9375 111.583 93.2708 110 93.9375C108.417 94.6042 107.042 95.5208 105.875 96.6875C104.708 97.8542 103.792 99.2292 103.125 100.812C102.458 102.354 102.125 104 102.125 105.75V144Z" fill="#1ED760"/>
<path d="M76.4375 134.812C72.2708 138.396 67.6042 141.146 62.4375 143.062C57.2708 144.979 51.9167 145.938 46.375 145.938C42.125 145.938 38.0208 145.375 34.0625 144.25C30.1458 143.167 26.4583 141.625 23 139.625C19.5833 137.583 16.4583 135.146 13.625 132.312C10.7917 129.479 8.35417 126.354 6.3125 122.938C4.3125 119.479 2.75 115.792 1.625 111.875C0.541667 107.917 0 103.812 0 99.5625C0 95.3125 0.541667 91.2083 1.625 87.25C2.75 83.2917 4.3125 79.6042 6.3125 76.1875C8.35417 72.7292 10.7917 69.5833 13.625 66.75C16.4583 63.9167 19.5833 61.5 23 59.5C26.4583 57.4583 30.1458 55.8958 34.0625 54.8125C38.0208 53.6875 42.125 53.125 46.375 53.125C51.9167 53.125 57.2708 54.0833 62.4375 56C67.6042 57.875 72.2708 60.625 76.4375 64.25L66.9375 79.875C64.3125 77.0417 61.2083 74.875 57.625 73.375C54.0417 71.8333 50.2917 71.0625 46.375 71.0625C42.4167 71.0625 38.7083 71.8125 35.25 73.3125C31.7917 74.8125 28.7708 76.8542 26.1875 79.4375C23.6042 81.9792 21.5625 85 20.0625 88.5C18.5625 91.9583 17.8125 95.6458 17.8125 99.5625C17.8125 103.479 18.5625 107.167 20.0625 110.625C21.5625 114.042 23.6042 117.042 26.1875 119.625C28.7708 122.208 31.7917 124.25 35.25 125.75C38.7083 127.25 42.4167 128 46.375 128C50.2917 128 54.0417 127.25 57.625 125.75C61.2083 124.208 64.3125 122.021 66.9375 119.188L76.4375 134.812Z" fill="#1ED760"/>
<path d="M93.5 0L107.789 25.5H79.2106L93.5 0Z" fill="#1ED760"/>
<path d="M575.062 193L560.773 167.5H589.352L575.062 193Z" fill="#D6241E"/>
</svg>
